<?xml version="1.0" encoding="utf-8"?>
<!-- Generator: Adobe Illustrator 22.0.1, SVG Export Plug-In . SVG Version: 6.00 Build 0)  -->
<svg version="1.1" id="Layer_1" xmlns="http://www.w3.org/2000/svg" xmlns:xlink="http://www.w3.org/1999/xlink" x="0px" y="0px"
	 viewBox="0 0 512 512" style="enable-background:new 0 0 512 512;" xml:space="preserve">
<style type="text/css">
	.st0{fill:none;stroke:#231F20;stroke-width:16;stroke-miterlimit:10;}
</style>
<g>
	<path class="st0" d="M503.5,204.5v195.8h-99V212.8c0-31.9-15.8-52.3-47.5-52.3c-33,0-51.5,22.3-51.5,60v179.9h-99V212.8
		c0-31.9-15.8-52.3-47.5-52.3c-33,0-51.5,22.3-51.5,60v179.9h-99V81.4h99v29.3c15.2-21.7,44.2-38.3,88.4-38.3
		c39,0,68,15.3,86.5,42.1c18.5-25.5,48.8-42.1,95.7-42.1C454,72.5,503.5,124.8,503.5,204.5z"/>
</g>
</svg>
