<?xml version="1.0" encoding="iso-8859-1"?>
<!-- Generator: Adobe Illustrator 19.0.0, SVG Export Plug-In . SVG Version: 6.00 Build 0)  -->
<svg version="1.1" id="Layer_1" xmlns="http://www.w3.org/2000/svg" xmlns:xlink="http://www.w3.org/1999/xlink" x="0px" y="0px"
	 viewBox="0 0 512 512" style="enable-background:new 0 0 512 512;" xml:space="preserve">
<g>
	<g>
		<g>
			<path d="M105.071,39.543l-29.56-17.067c-4.087-2.364-9.301-0.956-11.656,3.123c-2.355,4.079-0.956,9.301,3.123,11.657
				l29.56,17.067c1.34,0.777,2.816,1.143,4.258,1.143c2.953,0,5.82-1.527,7.398-4.267C110.549,47.121,109.158,41.899,105.071,39.543
				z"/>
			<path d="M162.133,392.533h-25.6c-4.719,0-8.533,3.823-8.533,8.533v25.6c0,1.195,0.213,29.363,19.558,48.7
				c19.345,19.345,47.514,19.567,48.708,19.567h25.6c4.71,0,8.533-3.823,8.533-8.533v-25.6c0-1.186-0.222-29.355-19.567-48.7
				C191.488,392.755,163.319,392.533,162.133,392.533z M213.333,477.867h-17.067c-0.222,0-22.238-0.162-36.634-14.566
				c-14.259-14.259-14.566-36.437-14.566-36.634V409.6h17.067c0.213,0,22.229,0.171,36.625,14.566
				c14.259,14.259,14.575,36.437,14.575,36.634V477.867z"/>
			<path d="M298.667,341.333c4.71,0,8.533-3.823,8.533-8.533c0-4.71-3.823-8.533-8.533-8.533h-85.333
				c-4.719,0-8.533,3.823-8.533,8.533c0,4.71,3.814,8.533,8.533,8.533H298.667z"/>
			<path d="M96.538,218.743l-29.56,17.067c-4.079,2.355-5.478,7.578-3.123,11.656c1.579,2.739,4.446,4.267,7.398,4.267
				c1.451,0,2.918-0.367,4.258-1.143l29.56-17.067c4.087-2.355,5.478-7.578,3.123-11.656
				C105.83,217.788,100.617,216.38,96.538,218.743z"/>
			<path d="M411.196,55.467c1.442,0,2.91-0.367,4.258-1.143l29.568-17.067c4.079-2.355,5.478-7.569,3.123-11.657
				c-2.355-4.079-7.569-5.487-11.657-3.123l-29.568,17.067c-4.079,2.355-5.478,7.578-3.123,11.657
				C405.376,53.939,408.243,55.467,411.196,55.467z"/>
			<path d="M256,0c-75.29,0-136.533,61.252-136.533,136.533c0,33.067,19.149,61.244,36.045,86.11
				c10.701,15.753,20.813,30.635,23.936,43.964l8.533,34.133c0.956,3.797,4.369,6.46,8.286,6.46h119.467
				c3.917,0,7.322-2.662,8.277-6.46l8.559-34.253c3.098-13.21,13.21-28.092,23.91-43.844c16.896-24.866,36.053-53.043,36.053-86.11
				C392.533,61.252,331.281,0,256,0z M342.374,213.052c-11.622,17.101-22.596,33.246-26.394,49.417l-6.912,27.665H202.923
				l-6.886-27.546c-3.823-16.29-14.797-32.435-26.419-49.536c-16.265-23.945-33.084-48.7-33.084-76.518
				c0-65.877,53.589-119.467,119.467-119.467c65.869,0,119.467,53.589,119.467,119.467
				C375.467,164.352,358.639,189.107,342.374,213.052z"/>
			<path d="M290.133,366.933c0-4.71-3.823-8.533-8.533-8.533h-51.2c-4.719,0-8.533,3.823-8.533,8.533s3.814,8.533,8.533,8.533h51.2
				C286.31,375.467,290.133,371.644,290.133,366.933z"/>
			<path d="M85.333,136.533c0-4.71-3.823-8.533-8.533-8.533H42.667c-4.719,0-8.533,3.823-8.533,8.533s3.814,8.533,8.533,8.533H76.8
				C81.51,145.067,85.333,141.244,85.333,136.533z"/>
			<path d="M321.502,57.83c-11.11-9.259-23.774-15.94-37.623-19.849c-5.461-1.545-11.093-2.637-16.742-3.243
				c-4.651-0.521-8.9,2.876-9.404,7.561c-0.512,4.685,2.876,8.892,7.561,9.404c4.71,0.512,9.395,1.417,13.943,2.705
				c11.537,3.251,22.084,8.815,31.343,16.529c1.596,1.331,3.533,1.98,5.453,1.98c2.449,0,4.873-1.041,6.562-3.072
				C325.606,66.227,325.12,60.851,321.502,57.83z"/>
			<path d="M335.718,86.229c-4.198,2.15-5.854,7.287-3.712,11.486c2.56,4.992,4.625,10.266,6.144,15.65
				c1.058,3.763,4.48,6.221,8.209,6.221c0.768,0,1.545-0.102,2.313-0.324c4.54-1.271,7.185-5.982,5.905-10.522
				c-1.826-6.477-4.309-12.8-7.373-18.799C345.054,85.751,339.925,84.096,335.718,86.229z"/>
			<path d="M445.013,235.81l-29.56-17.067c-4.087-2.364-9.301-0.956-11.657,3.123c-2.355,4.079-0.956,9.301,3.123,11.656
				l29.559,17.067c1.34,0.776,2.816,1.143,4.258,1.143c2.953,0,5.82-1.527,7.398-4.267
				C450.492,243.388,449.092,238.165,445.013,235.81z"/>
			<path d="M375.467,392.533h-25.6c-1.195,0-29.363,0.222-48.708,19.567c-19.345,19.345-19.558,47.514-19.558,48.7v25.6
				c0,4.71,3.814,8.533,8.533,8.533h25.6c1.186,0,29.355-0.222,48.7-19.567C383.778,456.03,384,427.861,384,426.667v-25.6
				C384,396.356,380.177,392.533,375.467,392.533z M366.933,426.667c0,0.222-0.171,22.238-14.575,36.634
				c-14.148,14.157-36.113,14.558-36.651,14.566h-17.041V460.8c0-0.222,0.162-22.229,14.566-36.634
				c14.251-14.259,36.437-14.566,36.634-14.566h17.067V426.667z"/>
			<path d="M469.333,128H435.2c-4.719,0-8.533,3.823-8.533,8.533s3.814,8.533,8.533,8.533h34.133c4.71,0,8.533-3.823,8.533-8.533
				S474.044,128,469.333,128z"/>
			<path d="M256,392.533c-4.719,0-8.533,3.823-8.533,8.533v102.4c0,4.71,3.814,8.533,8.533,8.533c4.71,0,8.533-3.823,8.533-8.533
				v-102.4C264.533,396.356,260.71,392.533,256,392.533z"/>
			<path d="M303.462,138.018c-2.876-1.946-6.639-1.963-9.532-0.051C287.394,142.31,267.827,153.6,256,153.6
				c-11.836,0-31.403-11.29-37.939-15.633c-2.884-1.911-6.647-1.894-9.532,0.051c-2.867,1.954-4.267,5.444-3.55,8.841l25.6,119.467
				c0.99,4.608,5.547,7.535,10.138,6.554c4.608-0.981,7.543-5.521,6.562-10.129l-21.623-100.89
				c9.207,4.489,20.599,8.806,30.345,8.806c9.737,0,21.129-4.318,30.336-8.806l-21.623,100.89
				c-0.981,4.608,1.954,9.148,6.562,10.129c0.606,0.128,1.203,0.188,1.792,0.188c3.942,0,7.484-2.739,8.346-6.741l25.6-119.467
				C307.738,143.462,306.33,139.972,303.462,138.018z"/>
		</g>
	</g>
</g>
<g>
</g>
<g>
</g>
<g>
</g>
<g>
</g>
<g>
</g>
<g>
</g>
<g>
</g>
<g>
</g>
<g>
</g>
<g>
</g>
<g>
</g>
<g>
</g>
<g>
</g>
<g>
</g>
<g>
</g>
</svg>
