<?xml version="1.0" encoding="iso-8859-1"?>
<!-- Generator: Adobe Illustrator 19.0.0, SVG Export Plug-In . SVG Version: 6.00 Build 0)  -->
<svg version="1.1" id="Layer_1" xmlns="http://www.w3.org/2000/svg" xmlns:xlink="http://www.w3.org/1999/xlink" x="0px" y="0px"
	 viewBox="0 0 512 512" style="enable-background:new 0 0 512 512;" xml:space="preserve">
<g>
	<g>
		<g>
			<path d="M86.844,242.62c-5.589,8.081-18.577,28.075-18.577,38.98c0,14.114,11.486,25.6,25.6,25.6s25.6-11.486,25.6-25.6
				c0-10.906-12.988-30.899-18.577-38.98C97.707,238.003,90.027,238.003,86.844,242.62z M93.867,290.133
				c-4.702,0-8.533-3.831-8.533-8.525c0.068-2.611,3.618-10.044,8.533-18.33c4.915,8.277,8.465,15.71,8.533,18.321
				C102.4,286.302,98.569,290.133,93.867,290.133z"/>
			<path d="M281.6,315.733c-4.71,0-8.533,3.823-8.533,8.533v153.6c0,9.412-7.654,17.067-17.067,17.067
				c-9.412,0-17.067-7.654-17.067-17.067v-153.6c0-9.412,7.654-17.067,17.067-17.067c4.71,0,8.533-3.823,8.533-8.533V230.4
				c0-4.71-3.823-8.533-8.533-8.533s-8.533,3.823-8.533,8.533v60.809c-14.703,3.806-25.6,17.186-25.6,33.058v153.6
				C221.867,496.691,237.175,512,256,512c18.825,0,34.133-15.309,34.133-34.133v-153.6
				C290.133,319.556,286.31,315.733,281.6,315.733z"/>
			<path d="M469.333,0H42.667C19.14,0,0,19.14,0,42.667V76.8c0,4.71,3.823,8.533,8.533,8.533h51.2c4.702,0,8.533,3.831,8.533,8.533
				v51.2c0,14.114,11.486,25.6,25.6,25.6s25.6-11.486,25.6-25.6v-51.2c0-4.702,3.831-8.533,8.533-8.533h85.333
				c14.114,0,25.6,11.486,25.6,25.6c0,23.526,19.14,42.667,42.667,42.667c23.526,0,42.667-19.14,42.667-42.667
				c0-14.114,11.486-25.6,25.6-25.6H384c4.702,0,8.533,3.831,8.533,8.533c0,14.114,11.486,25.6,25.6,25.6s25.6-11.486,25.6-25.6
				c0-4.702,3.831-8.533,8.533-8.533h51.2c4.71,0,8.533-3.823,8.533-8.533V42.667C512,19.14,492.86,0,469.333,0z M494.933,68.267
				h-42.667c-14.114,0-25.6,11.486-25.6,25.6c0,4.702-3.831,8.533-8.533,8.533s-8.533-3.831-8.533-8.533
				c0-14.114-11.486-25.6-25.6-25.6h-34.133c-23.526,0-42.667,19.14-42.667,42.667c0,14.114-11.486,25.6-25.6,25.6
				s-25.6-11.486-25.6-25.6c0-23.526-19.14-42.667-42.667-42.667H128c-14.114,0-25.6,11.486-25.6,25.6v51.2
				c0,4.702-3.831,8.533-8.533,8.533c-4.702,0-8.533-3.831-8.533-8.533v-51.2c0-14.114-11.486-25.6-25.6-25.6H17.067v-25.6
				c0-14.114,11.486-25.6,25.6-25.6h426.667c14.114,0,25.6,11.486,25.6,25.6V68.267z"/>
			<path d="M503.467,102.4c-4.71,0-8.533,3.823-8.533,8.533v51.2c0,14.114-11.486,25.6-25.6,25.6H42.667
				c-14.114,0-25.6-11.486-25.6-25.6v-51.2c0-4.71-3.823-8.533-8.533-8.533S0,106.223,0,110.933v51.2
				C0,185.66,19.14,204.8,42.667,204.8h426.667c23.526,0,42.667-19.14,42.667-42.667v-51.2C512,106.223,508.177,102.4,503.467,102.4
				z"/>
		</g>
	</g>
</g>
<g>
</g>
<g>
</g>
<g>
</g>
<g>
</g>
<g>
</g>
<g>
</g>
<g>
</g>
<g>
</g>
<g>
</g>
<g>
</g>
<g>
</g>
<g>
</g>
<g>
</g>
<g>
</g>
<g>
</g>
</svg>
