<?xml version="1.0" standalone="no"?>
<!DOCTYPE svg PUBLIC "-//W3C//DTD SVG 20010904//EN"
 "http://www.w3.org/TR/2001/REC-SVG-20010904/DTD/svg10.dtd">
<svg version="1.0" xmlns="http://www.w3.org/2000/svg"
 width="2085.000000pt" height="2085.000000pt" viewBox="0 0 2085.000000 2085.000000"
 preserveAspectRatio="xMidYMid meet">
<metadata>
Created by potrace 1.11, written by Peter Selinger 2001-2013
</metadata>
<g transform="translate(0.000000,2085.000000) scale(0.100000,-0.100000)"
fill="#000000" stroke="none">
<path d="M7549 17566 c-2 -2 -58 -7 -124 -11 -66 -4 -127 -8 -136 -10 -8 -2
-49 -6 -90 -10 -80 -7 -83 -7 -239 -30 -125 -18 -170 -26 -300 -51 -268 -52
-622 -161 -888 -273 -145 -61 -432 -201 -452 -221 -8 -8 -43 -29 -60 -37 -36
-15 -303 -199 -390 -268 -253 -202 -466 -423 -641 -665 l-54 -75 -5 634 -5
633 -2083 2 -2082 1 2 -6950 3 -6950 2083 0 2082 0 1 3990 c0 2194 2 4022 4
4060 4 100 15 251 20 274 2 11 6 48 10 82 4 35 8 66 10 69 1 3 6 32 10 65 3
32 8 62 10 65 2 3 6 21 9 41 20 127 94 384 156 539 211 529 581 915 1060 1104
52 21 105 42 118 47 60 24 309 78 427 93 184 24 542 24 662 2 10 -2 38 -7 63
-10 287 -40 568 -149 804 -314 146 -101 296 -252 386 -387 19 -27 36 -52 39
-55 8 -7 23 -32 75 -127 62 -112 129 -271 166 -395 17 -56 35 -116 40 -133 37
-123 73 -372 87 -595 4 -63 7 -1981 8 -4262 0 -2758 3 -4148 10 -4149 6 -1
944 -2 2086 -3 l2076 -1 1 4006 c0 3490 3 4182 17 4259 1 8 6 49 10 90 4 41 9
84 11 95 2 10 6 37 9 60 5 32 50 260 59 300 57 238 210 608 302 732 13 17 24
35 24 39 0 13 136 188 201 258 204 221 473 394 763 491 59 20 116 38 125 40 9
2 45 10 81 19 71 16 100 22 169 32 25 4 55 8 66 10 11 2 69 7 130 11 212 13
422 5 595 -22 14 -3 43 -7 65 -10 165 -25 425 -118 605 -216 132 -73 362 -272
462 -399 98 -125 213 -327 278 -489 59 -147 123 -382 145 -536 4 -22 8 -51 10
-65 2 -14 7 -47 10 -75 3 -27 8 -63 10 -80 15 -109 17 -711 17 -4415 l1 -4135
2079 0 c1560 0 2081 3 2086 12 9 14 7 8583 -2 8843 -4 107 -9 211 -11 230 -1
19 -6 73 -10 120 -7 92 -10 125 -30 300 -10 86 -50 355 -60 400 -3 14 -7 39
-10 55 -3 17 -10 50 -15 75 -5 25 -12 56 -14 70 -18 106 -140 576 -166 635 -5
11 -21 58 -36 105 -100 314 -290 730 -489 1070 -76 130 -338 508 -374 540 -4
3 -31 37 -62 75 -190 238 -539 572 -793 760 -91 67 -322 225 -330 225 -3 0
-24 13 -48 29 -147 98 -446 248 -710 355 -248 100 -672 229 -853 260 -16 2
-79 14 -140 26 -60 11 -126 23 -145 25 -19 3 -48 8 -65 10 -16 3 -50 7 -75 10
-25 3 -54 8 -65 10 -11 2 -54 7 -95 10 -41 4 -86 8 -99 10 -166 27 -1048 26
-1213 0 -13 -2 -59 -6 -103 -10 -44 -4 -82 -8 -85 -10 -3 -1 -39 -6 -79 -9
-41 -4 -77 -9 -80 -11 -4 -1 -33 -6 -66 -10 -69 -7 -454 -84 -505 -100 -10 -3
-28 -8 -41 -10 -132 -26 -660 -205 -694 -236 -5 -5 -15 -9 -22 -9 -22 0 -358
-171 -473 -240 -162 -97 -325 -211 -472 -328 -137 -110 -409 -373 -514 -497
-32 -38 -62 -72 -65 -75 -3 -3 -48 -62 -101 -131 l-94 -126 -93 128 c-215 297
-494 593 -746 793 -33 26 -68 53 -77 61 -56 45 -262 184 -372 250 -153 92
-384 206 -533 265 -60 23 -117 46 -128 50 -83 35 -422 136 -515 153 -14 3 -56
12 -95 20 -171 37 -342 63 -535 83 -36 3 -83 8 -105 10 -49 6 -781 14 -786 10z"/>
</g>
</svg>
