<?xml version="1.0" standalone="no"?>
<!DOCTYPE svg PUBLIC "-//W3C//DTD SVG 20010904//EN"
 "http://www.w3.org/TR/2001/REC-SVG-20010904/DTD/svg10.dtd">
<svg version="1.0" xmlns="http://www.w3.org/2000/svg"
 width="178.000000pt" height="178.000000pt" viewBox="0 0 178.000000 178.000000"
 preserveAspectRatio="xMidYMid meet">
<metadata>
Created by potrace 1.11, written by Peter Selinger 2001-2013
</metadata>
<g transform="translate(0.000000,178.000000) scale(0.100000,-0.100000)"
fill="#000000" stroke="none">
<path d="M395 1439 c-27 -5 -70 -11 -95 -14 -25 -4 -71 -13 -102 -22 l-58 -16
0 -508 0 -509 150 0 150 0 0 410 c0 226 1 410 3 411 30 8 145 8 172 -1 42 -14
81 -61 90 -110 3 -19 8 -44 10 -55 2 -11 4 -163 4 -337 l1 -318 150 0 150 0 0
343 c-1 188 -6 365 -11 392 -11 60 -4 68 76 86 99 22 172 -13 194 -93 19 -72
19 -82 20 -410 l1 -318 151 0 151 0 -5 377 c-2 208 -7 389 -10 402 -54 208
-171 296 -395 299 -92 1 -200 -27 -273 -70 l-42 -25 -41 27 c-73 50 -130 63
-266 66 -69 1 -147 -2 -175 -7z"/>
</g>
</svg>
