<?xml version="1.0" encoding="iso-8859-1"?>
<!-- Generator: Adobe Illustrator 19.0.0, SVG Export Plug-In . SVG Version: 6.00 Build 0)  -->
<svg version="1.1" id="Layer_1" xmlns="http://www.w3.org/2000/svg" xmlns:xlink="http://www.w3.org/1999/xlink" x="0px" y="0px"
	 viewBox="0 0 512.067 512.067" style="enable-background:new 0 0 512.067 512.067;" xml:space="preserve">
<g>
	<g>
		<path d="M510.406,197.879c-4.932-16.256-19.652-27.179-36.634-27.179H334.824L292.601,27.016
			c-4.958-16.06-19.584-26.906-36.429-26.982c-16.819,0-31.531,10.718-36.634,26.778L175.916,170.7H38.299
			c-16.981,0-31.701,10.923-36.634,27.196c-4.907,16.265,1.297,33.51,15.044,42.65l112.572,84.156L85.753,462.131
			c-5.146,16.137,0.759,33.451,14.686,43.093c13.449,9.327,33.05,8.414,45.03-1.092l85.231-58.3c3.891-2.662,4.89-7.97,2.227-11.861
			c-2.654-3.883-7.953-4.881-11.861-2.219l-85.709,58.65c-7.125,5.623-17.758,5.956-25.208,0.794
			c-7.714-5.342-10.991-14.942-8.132-23.893l45.363-143.232c1.101-3.456-0.119-7.236-3.029-9.412L26.54,226.611
			c-7.825-5.214-11.255-14.771-8.542-23.782c2.739-9.011,10.888-15.061,20.301-15.061h143.957c3.755,0,7.074-2.458,8.166-6.059
			l45.414-149.837C238.645,23.039,246.82,17.1,256.13,17.1c9.318,0.043,17.425,6.05,20.139,14.839l43.989,149.692
			c1.067,3.635,4.403,6.135,8.183,6.135h145.331c9.412,0,17.562,6.05,20.301,15.053c2.714,9.02-0.717,18.577-8.926,24.064
			L367.72,314.658c-2.91,2.176-4.122,5.956-3.029,9.412l45.363,143.249c2.859,8.934-0.418,18.534-8.132,23.876
			c-7.458,5.171-17.647,5.163-25.694-1.152l-140.809-95.991c-3.9-2.662-9.199-1.656-11.861,2.236
			c-2.654,3.9-1.647,9.208,2.244,11.861l140.322,95.642c6.733,5.316,15.164,8.243,23.731,8.243c7.825,0,15.352-2.355,21.777-6.81
			c13.926-9.643,19.831-26.957,14.686-43.076l-43.52-137.446l112.179-83.883C509.109,231.406,515.313,214.161,510.406,197.879z"/>
	</g>
</g>
<g>
</g>
<g>
</g>
<g>
</g>
<g>
</g>
<g>
</g>
<g>
</g>
<g>
</g>
<g>
</g>
<g>
</g>
<g>
</g>
<g>
</g>
<g>
</g>
<g>
</g>
<g>
</g>
<g>
</g>
</svg>
