<?xml version="1.0" encoding="iso-8859-1"?>
<!-- Generator: Adobe Illustrator 19.0.0, SVG Export Plug-In . SVG Version: 6.00 Build 0)  -->
<svg version="1.1" id="Layer_1" xmlns="http://www.w3.org/2000/svg" xmlns:xlink="http://www.w3.org/1999/xlink" x="0px" y="0px"
	 viewBox="0 0 512.009 512.009" style="enable-background:new 0 0 512.009 512.009;" xml:space="preserve">
<g>
	<g>
		<g>
			<path d="M196.311,204.8c-4.71,0-8.533,3.823-8.533,8.533c0,4.71,3.823,8.533,8.533,8.533h136.533
				c4.719,0,8.533-3.823,8.533-8.533c0-4.71-3.814-8.533-8.533-8.533H196.311z"/>
			<path d="M264.577,187.733c51.763,0,93.867-42.103,93.867-93.867C358.444,42.112,316.341,0,264.577,0
				c-51.755,0-93.867,42.112-93.867,93.867C170.711,145.63,212.823,187.733,264.577,187.733z M264.577,17.067
				c42.351,0,76.8,34.458,76.8,76.8c0,42.351-34.449,76.8-76.8,76.8c-42.342,0-76.8-34.449-76.8-76.8
				C187.777,51.524,222.235,17.067,264.577,17.067z"/>
			<path d="M264.577,136.533c-9.404,0-17.067-7.654-17.067-17.067c0-4.71-3.814-8.533-8.533-8.533c-4.71,0-8.533,3.823-8.533,8.533
				c0,15.863,10.923,29.107,25.6,32.922v1.212c0,4.71,3.823,8.533,8.533,8.533c4.719,0,8.533-3.823,8.533-8.533v-1.212
				c14.686-3.814,25.6-17.058,25.6-32.922c0-18.816-15.309-34.133-34.133-34.133c-9.404,0-17.067-7.654-17.067-17.067
				c0-9.412,7.663-17.067,17.067-17.067c9.412,0,17.067,7.654,17.067,17.067c0,4.71,3.823,8.533,8.533,8.533
				c4.719,0,8.533-3.823,8.533-8.533c0-15.855-10.914-29.099-25.6-32.922v-1.212c0-4.71-3.814-8.533-8.533-8.533
				c-4.71,0-8.533,3.823-8.533,8.533v1.212c-14.677,3.823-25.6,17.067-25.6,32.922c0,18.825,15.309,34.133,34.133,34.133
				c9.412,0,17.067,7.654,17.067,17.067C281.644,128.879,273.99,136.533,264.577,136.533z"/>
			<path d="M156.289,481.869c-4.548-1.22-9.233,1.476-10.453,6.033l-1.877,7.031l-32.981-8.832l4.198-15.642
				c1.212-4.548-1.485-9.225-6.033-10.453c-4.548-1.22-9.233,1.485-10.453,6.042l-4.19,15.633
				c-1.186,4.403-0.589,9.003,1.707,12.954c2.278,3.942,5.948,6.767,10.359,7.953l32.973,8.832c1.476,0.393,2.97,0.589,4.446,0.589
				c2.953,0,5.871-0.777,8.499-2.287c3.959-2.278,6.784-5.965,7.953-10.368l1.886-7.031
				C163.543,487.765,160.838,483.089,156.289,481.869z"/>
			<path d="M413.552,466.586c-1.212-4.557-5.931-7.245-10.436-6.042c-4.557,1.22-7.262,5.897-6.042,10.453l4.028,15.104
				l-32.964,8.832l-1.997-7.467c-1.212-4.548-5.897-7.253-10.453-6.033c-4.548,1.22-7.245,5.896-6.033,10.453l2.005,7.458
				c1.169,4.403,3.994,8.09,7.945,10.368c2.637,1.519,5.555,2.295,8.499,2.295c1.485,0,2.987-0.196,4.454-0.597l32.964-8.832
				c4.412-1.178,8.098-4.002,10.385-7.962c2.27-3.959,2.867-8.559,1.681-12.928L413.552,466.586z"/>
			<path d="M500.78,249.737c-3.456-3.2-8.875-2.995-12.058,0.469c-3.209,3.456-3.004,8.858,0.461,12.058
				c0.068,0.06,6.306,6.178,5.666,13.269c-0.606,6.716-7.39,12.382-12.988,15.94c-1.869,1.195-3.738,2.116-5.598,2.918
				c-8.721-55.799-52.181-103.987-118.315-130.295c-4.378-1.732-9.344,0.393-11.076,4.779c-1.749,4.378,0.393,9.344,4.779,11.085
				c60.527,24.073,100.147,67.55,107.793,117.478c-10.957-0.58-18.961-5.555-19.558-5.931c-3.934-2.552-9.199-1.442-11.776,2.483
				c-2.577,3.942-1.476,9.233,2.466,11.819c0.802,0.529,13.713,8.789,31.113,8.789c2.27,0,4.608-0.145,7.006-0.461
				c0.111,0,0.205,0.06,0.307,0.06c0.222,0,0.435-0.009,0.657-0.026c1.032-0.085,1.971-0.401,2.867-0.811
				c5.965-1.237,12.186-3.473,18.509-7.492c12.826-8.175,19.831-17.869,20.813-28.8C513.222,261.743,502.06,250.923,500.78,249.737z
				"/>
			<path d="M119.511,256c0,9.412,7.663,17.067,17.067,17.067c9.412,0,17.067-7.654,17.067-17.067
				c0-9.412-7.654-17.067-17.067-17.067C127.174,238.933,119.511,246.588,119.511,256z"/>
			<path d="M469.232,326.263c-4.659-0.742-9.02,2.483-9.728,7.142c-11.878,77.491-99.345,135.927-203.46,135.927
				c-88.678,0-166.878-42.522-194.594-105.822c-1.357-3.106-4.429-5.111-7.817-5.111H29.911c-1.587,0-3.439-0.29-5.163-3.814
				c-0.077-0.154-7.637-15.531-7.637-38.852c0-23.049,7.569-38.716,7.757-39.1c1.374-2.978,2.884-3.567,5.043-3.567h23.723
				c3.388,0,6.46-2.005,7.817-5.103c18.022-41.173,58.743-74.931,111.71-92.604c4.471-1.493,6.878-6.323,5.385-10.795
				c-1.485-4.471-6.332-6.886-10.786-5.393C112.385,177.647,69.138,212.762,48.172,256H29.911c-9.25,0-16.546,4.796-20.429,13.252
				c-0.384,0.768-9.438,19.183-9.438,46.481c0,27.298,9.054,45.713,9.404,46.421c4.207,8.585,11.477,13.312,20.463,13.312h18.261
				C80.385,442.052,163.048,486.4,256.044,486.4c112.461,0,207.189-64.657,220.331-150.417
				C477.091,331.324,473.891,326.972,469.232,326.263z"/>
		</g>
	</g>
</g>
<g>
</g>
<g>
</g>
<g>
</g>
<g>
</g>
<g>
</g>
<g>
</g>
<g>
</g>
<g>
</g>
<g>
</g>
<g>
</g>
<g>
</g>
<g>
</g>
<g>
</g>
<g>
</g>
<g>
</g>
</svg>
